<svg width="18" height="18" viewBox="0 0 18 18" fill="none" xmlns="http://www.w3.org/2000/svg">
<path d="M8.71875 0C13.5 0 17.4375 3.9375 17.4375 8.71875C17.4375 13.5352 13.5 17.4375 8.71875 17.4375C3.90234 17.4375 0 13.5352 0 8.71875C0 3.9375 3.90234 0 8.71875 0ZM8.71875 15.1875C12.2695 15.1875 15.1875 12.3047 15.1875 8.71875C15.1875 5.16797 12.2695 2.25 8.71875 2.25C5.13281 2.25 2.25 5.16797 2.25 8.71875C2.25 12.3047 5.13281 15.1875 8.71875 15.1875ZM8.71875 4.21875C11.1797 4.21875 13.2188 6.25781 13.2188 8.71875C13.2188 11.2148 11.1797 13.2188 8.71875 13.2188C6.22266 13.2188 4.21875 11.2148 4.21875 8.71875C4.21875 6.25781 6.22266 4.21875 8.71875 4.21875ZM8.71875 10.9688C9.94922 10.9688 10.9688 9.98438 10.9688 8.71875C10.9688 7.48828 9.94922 6.46875 8.71875 6.46875C7.45312 6.46875 6.46875 7.48828 6.46875 8.71875C6.46875 9.98438 7.45312 10.9688 8.71875 10.9688Z" fill="#2563EB"/>
</svg>
