<svg width="18" height="28" viewBox="0 0 18 28" fill="none" xmlns="http://www.w3.org/2000/svg">
<path d="M16.3828 8.20312C17.0156 8.48438 17.4375 9.08203 17.4375 9.75C17.4375 17.5547 12.6562 21.8789 9.63281 23.1445C9.21094 23.3203 8.75391 23.3203 8.33203 23.1445C4.57031 21.5625 0.5625 16.7461 0.5625 9.75C0.5625 9.08203 0.949219 8.48438 1.58203 8.20312L8.33203 5.39062C8.54297 5.32031 8.75391 5.28516 9 5.28516C9.21094 5.28516 9.42188 5.32031 9.63281 5.39062L16.3828 8.20312ZM9 20.9648C12.2695 19.3125 15.0469 15.4453 15.1523 10.1367L9 7.57031V20.9648Z" fill="#2563EB"/>
</svg>
